<svg xmlns="http://www.w3.org/2000/svg" xmlns:xlink="http://www.w3.org/1999/xlink" width="315" zoomAndPan="magnify" viewBox="246 327 315 226" height="226" preserveAspectRatio="xMidYMid meet" version="1.0"><defs><g/><clipPath id="68f9bb4152"><path d="M 0.0351562 0.242188 L 303.726562 0.242188 L 303.726562 184.710938 L 0.0351562 184.710938 Z M 0.0351562 0.242188 " clip-rule="nonzero"/></clipPath><clipPath id="a12bd27dd3"><rect x="0" width="304" y="0" height="185"/></clipPath><clipPath id="3ae29e2ebb"><rect x="0" width="304" y="0" height="185"/></clipPath></defs><g transform="matrix(1, 0, 0, 1, 253, 397)"><g clip-path="url(#3ae29e2ebb)"><g clip-path="url(#68f9bb4152)"><g transform="matrix(1, 0, 0, 1, -0.000000000000028422, 0)"><g clip-path="url(#a12bd27dd3)"><g fill="#8ba6b1" fill-opacity="1"><g transform="translate(0.737703, 144.188001)"><g><path d="M 173.15625 -0.796875 C 173.957031 -0.796875 174.320312 -0.5625 174.25 -0.09375 C 174.1875 0.363281 173.820312 0.59375 173.15625 0.59375 C 171.957031 0.46875 170.191406 0.335938 167.859375 0.203125 C 165.523438 0.0664062 163.691406 0 162.359375 0 L 134.96875 0 C 133.238281 0 130.972656 0.0664062 128.171875 0.203125 C 125.367188 0.335938 123.234375 0.46875 121.765625 0.59375 C 120.972656 0.59375 120.539062 0.363281 120.46875 -0.09375 C 120.40625 -0.5625 120.835938 -0.796875 121.765625 -0.796875 C 127.234375 -1.066406 131.535156 -2.398438 134.671875 -4.796875 C 137.804688 -7.191406 139.039062 -11.859375 138.375 -18.796875 L 128.375 -123.171875 C 128.238281 -123.835938 127.96875 -124.171875 127.5625 -124.171875 C 127.164062 -124.171875 126.769531 -123.769531 126.375 -122.96875 L 80.984375 -7.390625 C 80.453125 -5.929688 79.648438 -5.203125 78.578125 -5.203125 C 77.648438 -5.203125 76.914062 -5.800781 76.375 -7 L 32 -120.96875 C 31.726562 -121.632812 31.523438 -122.035156 31.390625 -122.171875 C 31.253906 -122.304688 31.054688 -122.375 30.796875 -122.375 C 30.390625 -122.375 30.125 -122.039062 30 -121.375 L 20.59375 -18.796875 C 20.0625 -11.859375 21.359375 -7.191406 24.484375 -4.796875 C 27.617188 -2.398438 31.851562 -1.066406 37.1875 -0.796875 C 38.257812 -0.796875 38.757812 -0.5625 38.6875 -0.09375 C 38.625 0.363281 38.125 0.59375 37.1875 0.59375 C 35.851562 0.46875 33.753906 0.335938 30.890625 0.203125 C 28.023438 0.0664062 25.726562 0 24 0 L 14.59375 0 C 13.257812 0 11.425781 0.0664062 9.09375 0.203125 C 6.757812 0.335938 4.992188 0.46875 3.796875 0.59375 C 3.128906 0.59375 2.726562 0.363281 2.59375 -0.09375 C 2.46875 -0.5625 2.867188 -0.796875 3.796875 -0.796875 C 8.191406 -1.066406 11.691406 -2.398438 14.296875 -4.796875 C 16.898438 -7.191406 18.535156 -11.859375 19.203125 -18.796875 L 29.1875 -127.171875 C 26.925781 -131.566406 24.59375 -134.628906 22.1875 -136.359375 C 19.789062 -138.097656 16.660156 -139.035156 12.796875 -139.171875 C 11.992188 -139.171875 11.625 -139.398438 11.6875 -139.859375 C 11.757812 -140.328125 12.128906 -140.5625 12.796875 -140.5625 C 13.992188 -140.425781 15.789062 -140.289062 18.1875 -140.15625 C 20.59375 -140.03125 22.460938 -139.96875 23.796875 -139.96875 L 41.984375 -139.96875 C 43.453125 -139.96875 44.390625 -139.367188 44.796875 -138.171875 L 86.1875 -32.1875 C 86.445312 -31.519531 86.710938 -31.1875 86.984375 -31.1875 C 87.378906 -31.1875 87.710938 -31.519531 87.984375 -32.1875 L 130.765625 -138.5625 C 131.035156 -139.5 131.632812 -139.96875 132.5625 -139.96875 L 150.359375 -139.96875 C 151.828125 -139.96875 153.757812 -140.03125 156.15625 -140.15625 C 158.5625 -140.289062 160.429688 -140.425781 161.765625 -140.5625 C 162.429688 -140.5625 162.796875 -140.328125 162.859375 -139.859375 C 162.929688 -139.398438 162.566406 -139.171875 161.765625 -139.171875 C 157.234375 -139.035156 153.597656 -137.734375 150.859375 -135.265625 C 148.128906 -132.796875 147.097656 -128.097656 147.765625 -121.171875 L 157.765625 -18.796875 C 158.429688 -11.859375 160.0625 -7.191406 162.65625 -4.796875 C 165.257812 -2.398438 168.757812 -1.066406 173.15625 -0.796875 Z M 29.796875 -125.96875 L 31.59375 -121.96875 Z M 29.796875 -125.96875 "/></g></g></g><g fill="#8ba6b1" fill-opacity="1"><g transform="translate(177.692065, 144.188001)"><g><path d="M 77.984375 0 L 19 0 C 17.664062 0 15.832031 0.0664062 13.5 0.203125 C 11.164062 0.335938 9.398438 0.46875 8.203125 0.59375 C 7.535156 0.59375 7.132812 0.363281 7 -0.09375 C 6.863281 -0.5625 7.265625 -0.796875 8.203125 -0.796875 C 12.597656 -1.066406 16.09375 -2.398438 18.6875 -4.796875 C 21.289062 -7.191406 22.59375 -11.859375 22.59375 -18.796875 L 22.59375 -121.171875 C 22.59375 -128.097656 21.289062 -132.796875 18.6875 -135.265625 C 16.09375 -137.734375 12.597656 -139.035156 8.203125 -139.171875 C 7.265625 -139.171875 6.863281 -139.398438 7 -139.859375 C 7.132812 -140.328125 7.535156 -140.5625 8.203125 -140.5625 C 9.398438 -140.425781 11.164062 -140.289062 13.5 -140.15625 C 15.832031 -140.03125 17.664062 -139.96875 19 -139.96875 L 74.984375 -139.96875 C 84.316406 -139.96875 91.347656 -140.332031 96.078125 -141.0625 C 100.804688 -141.800781 104.171875 -142.171875 106.171875 -142.171875 C 107.242188 -142.171875 108.078125 -141.898438 108.671875 -141.359375 C 109.273438 -140.828125 109.644531 -139.628906 109.78125 -137.765625 C 110.039062 -130.835938 110.601562 -123.140625 111.46875 -114.671875 C 112.34375 -106.203125 113.3125 -97.703125 114.375 -89.171875 C 114.507812 -88.640625 114.410156 -88.335938 114.078125 -88.265625 C 113.742188 -88.203125 113.507812 -88.441406 113.375 -88.984375 C 111.101562 -98.441406 109.164062 -105.738281 107.5625 -110.875 C 105.96875 -116.007812 104.46875 -119.875 103.0625 -122.46875 C 101.664062 -125.070312 100.101562 -127.304688 98.375 -129.171875 C 94.644531 -133.304688 88.742188 -135.90625 80.671875 -136.96875 C 72.609375 -138.03125 61.25 -138.5625 46.59375 -138.5625 C 43.394531 -138.5625 41.796875 -136.363281 41.796875 -131.96875 L 41.796875 -79.984375 C 41.796875 -78.910156 42.0625 -77.804688 42.59375 -76.671875 C 43.125 -75.546875 44.191406 -74.984375 45.796875 -74.984375 C 46.992188 -74.984375 48.859375 -74.984375 51.390625 -74.984375 C 53.921875 -74.984375 56.550781 -75.046875 59.28125 -75.171875 C 62.019531 -75.304688 64.054688 -75.441406 65.390625 -75.578125 C 67.648438 -75.847656 69.578125 -76.515625 71.171875 -77.578125 C 72.773438 -78.648438 74.3125 -80.648438 75.78125 -83.578125 C 77.25 -86.515625 78.78125 -90.78125 80.375 -96.375 C 80.644531 -97.3125 80.945312 -97.710938 81.28125 -97.578125 C 81.613281 -97.441406 81.710938 -97.039062 81.578125 -96.375 C 80.773438 -91.707031 80.304688 -86.570312 80.171875 -80.96875 C 80.046875 -75.375 80.210938 -69.84375 80.671875 -64.375 C 81.140625 -58.914062 81.773438 -53.988281 82.578125 -49.59375 C 82.710938 -49.050781 82.613281 -48.710938 82.28125 -48.578125 C 81.945312 -48.453125 81.644531 -48.789062 81.375 -49.59375 C 78.84375 -58.25 76.378906 -64.210938 73.984375 -67.484375 C 71.585938 -70.753906 68.722656 -72.585938 65.390625 -72.984375 C 64.054688 -73.117188 62.019531 -73.21875 59.28125 -73.28125 C 56.550781 -73.34375 53.921875 -73.40625 51.390625 -73.46875 C 48.859375 -73.539062 46.992188 -73.578125 45.796875 -73.578125 C 44.191406 -73.578125 43.125 -72.941406 42.59375 -71.671875 C 42.0625 -70.410156 41.796875 -69.25 41.796875 -68.1875 L 41.796875 -10.796875 C 41.796875 -7.066406 42.425781 -4.566406 43.6875 -3.296875 C 44.957031 -2.035156 46.390625 -1.40625 47.984375 -1.40625 C 64.253906 -1.40625 76.851562 -2.171875 85.78125 -3.703125 C 94.707031 -5.234375 101.039062 -7.796875 104.78125 -11.390625 C 108.113281 -14.460938 110.878906 -18.929688 113.078125 -24.796875 C 115.273438 -30.660156 117.441406 -39.257812 119.578125 -50.59375 C 119.835938 -51.65625 120.164062 -52.085938 120.5625 -51.890625 C 120.96875 -51.691406 121.035156 -51.191406 120.765625 -50.390625 C 119.429688 -42.117188 118.398438 -33.6875 117.671875 -25.09375 C 116.941406 -16.5 116.507812 -8.867188 116.375 -2.203125 C 116.238281 -0.460938 115.867188 0.703125 115.265625 1.296875 C 114.671875 1.898438 113.84375 2.203125 112.78125 2.203125 C 111.445312 2.203125 109.675781 2.035156 107.46875 1.703125 C 105.269531 1.367188 101.90625 1 97.375 0.59375 C 92.84375 0.195312 86.378906 0 77.984375 0 Z M 77.984375 0 "/></g></g></g></g></g></g></g></g><g fill="#8ba6b1" fill-opacity="1"><g transform="translate(283.311786, 361.726051)"><g><path d="M 14.625 0.203125 C 12.226562 0.203125 10.070312 -0.320312 8.15625 -1.375 C 6.238281 -2.4375 4.734375 -3.90625 3.640625 -5.78125 C 2.546875 -7.65625 2 -9.753906 2 -12.078125 C 2 -14.398438 2.546875 -16.5 3.640625 -18.375 C 4.734375 -20.25 6.242188 -21.710938 8.171875 -22.765625 C 10.109375 -23.828125 12.269531 -24.359375 14.65625 -24.359375 C 16.445312 -24.359375 18.101562 -24.054688 19.625 -23.453125 C 21.144531 -22.859375 22.429688 -21.988281 23.484375 -20.84375 L 21.875 -19.21875 C 19.988281 -21.125 17.609375 -22.078125 14.734375 -22.078125 C 12.816406 -22.078125 11.078125 -21.640625 9.515625 -20.765625 C 7.953125 -19.890625 6.726562 -18.691406 5.84375 -17.171875 C 4.957031 -15.660156 4.515625 -13.960938 4.515625 -12.078125 C 4.515625 -10.191406 4.957031 -8.488281 5.84375 -6.96875 C 6.726562 -5.445312 7.953125 -4.25 9.515625 -3.375 C 11.078125 -2.5 12.816406 -2.0625 14.734375 -2.0625 C 17.628906 -2.0625 20.007812 -3.03125 21.875 -4.96875 L 23.484375 -3.34375 C 22.429688 -2.195312 21.140625 -1.316406 19.609375 -0.703125 C 18.078125 -0.0976562 16.414062 0.203125 14.625 0.203125 Z M 14.625 0.203125 "/></g></g></g><g fill="#8ba6b1" fill-opacity="1"><g transform="translate(325.711713, 361.726051)"><g><path d="M 19.875 -21.9375 L 11.390625 -21.9375 L 11.390625 0 L 8.859375 0 L 8.859375 -21.9375 L 0.375 -21.9375 L 0.375 -24.15625 L 19.875 -24.15625 Z M 19.875 -21.9375 "/></g></g></g><g fill="#8ba6b1" fill-opacity="1"><g transform="translate(362.971696, 361.726051)"><g><path d="M 23.046875 -24.15625 L 12.078125 -3.828125 C 11.296875 -2.378906 10.378906 -1.300781 9.328125 -0.59375 C 8.285156 0.101562 7.144531 0.453125 5.90625 0.453125 C 4.976562 0.453125 3.988281 0.234375 2.9375 -0.203125 L 3.65625 -2.28125 C 4.488281 -1.957031 5.25 -1.796875 5.9375 -1.796875 C 7.519531 -1.796875 8.816406 -2.65625 9.828125 -4.375 L 10.515625 -5.546875 L 0.71875 -24.15625 L 3.453125 -24.15625 L 11.875 -7.796875 L 20.5 -24.15625 Z M 23.046875 -24.15625 "/></g></g></g><g fill="#8ba6b1" fill-opacity="1"><g transform="translate(403.681249, 361.726051)"><g><path d="M 26.25 -2.203125 L 26.25 5.421875 L 23.875 5.421875 L 23.875 0 L 2.796875 0 L 2.765625 5.421875 L 0.375 5.421875 L 0.40625 -2.203125 L 1.625 -2.203125 C 3.207031 -2.296875 4.304688 -3.554688 4.921875 -5.984375 C 5.546875 -8.410156 5.929688 -11.851562 6.078125 -16.3125 L 6.34375 -24.15625 L 22.625 -24.15625 L 22.625 -2.203125 Z M 8.34375 -16.078125 C 8.226562 -12.398438 7.945312 -9.367188 7.5 -6.984375 C 7.050781 -4.609375 6.300781 -3.015625 5.25 -2.203125 L 20.109375 -2.203125 L 20.109375 -21.9375 L 8.5625 -21.9375 Z M 8.34375 -16.078125 "/></g></g></g><g fill="#8ba6b1" fill-opacity="1"><g transform="translate(449.082326, 361.726051)"><g><path d="M 4.078125 -24.15625 L 6.59375 -24.15625 L 6.59375 -4.140625 L 22.046875 -24.15625 L 24.359375 -24.15625 L 24.359375 0 L 21.84375 0 L 21.84375 -19.96875 L 6.375 0 L 4.078125 0 Z M 4.078125 -24.15625 "/></g></g></g><g fill="#8ba6b1" fill-opacity="1"><g transform="translate(495.51825, 361.726051)"><g><path d="M 21.1875 -24.15625 L 21.1875 0 L 18.671875 0 L 18.671875 -7.3125 L 11.453125 -7.3125 C 11.128906 -7.3125 10.671875 -7.335938 10.078125 -7.390625 L 5 0 L 2.28125 0 L 7.765625 -7.828125 C 5.992188 -8.359375 4.632812 -9.296875 3.6875 -10.640625 C 2.75 -11.984375 2.28125 -13.632812 2.28125 -15.59375 C 2.28125 -18.3125 3.132812 -20.414062 4.84375 -21.90625 C 6.5625 -23.40625 8.878906 -24.15625 11.796875 -24.15625 Z M 4.828125 -15.65625 C 4.828125 -13.6875 5.40625 -12.164062 6.5625 -11.09375 C 7.726562 -10.019531 9.425781 -9.484375 11.65625 -9.484375 L 18.671875 -9.484375 L 18.671875 -21.9375 L 11.90625 -21.9375 C 9.644531 -21.9375 7.898438 -21.398438 6.671875 -20.328125 C 5.441406 -19.265625 4.828125 -17.707031 4.828125 -15.65625 Z M 4.828125 -15.65625 "/></g></g></g></svg>